<svg
  xmlns="http://www.w3.org/2000/svg"
  width="256"
  height="256"
  viewBox="0 0 256 256"
  fill="none"
>
  <path
    d="M52 54C52 42.9543 60.9543 34 72 34H123.758C129.061 34 134.147 36.1071 137.899 39.8579L202.142 104.101C205.893 107.853 208 112.939 208 118.242V184C208 195.046 199.046 204 188 204H136C130.477 204 126 199.523 126 194V146C126 140.477 121.523 136 116 136H84C78.4772 136 74 140.477 74 146V194C74 199.523 69.5228 204 64 204H52V54Z"
    fill="#0F172A"
  />
  <path
    d="M114.5 34H123.758C129.061 34 134.147 36.1071 137.899 39.8579L202.142 104.101C205.893 107.853 208 112.939 208 118.242V127.5H155C132.08 127.5 113.5 108.92 113.5 86V34.5C113.5 34.3328 113.501 34.1661 114.5 34Z"
    fill="#3C9EE0"
  />
  <path
    d="M79 84C79 78.4772 83.4772 74 89 74H112.5L159.5 136.5V74H168C173.523 74 178 78.4772 178 84V154C178 159.523 173.523 164 168 164H145L97.5 101V164H89C83.4772 164 79 159.523 79 154V84Z"
    fill="white"
  />
</svg>
